HIERARCHY
ROOT Hips
{
  OFFSET 0 0 0
  CHANNELS 6 Xposition Yposition Zposition Zrotation Yrotation Xrotation
  JOINT LeftThigh
  {
    OFFSET 8.409438 0 -5.917753
    CHANNELS 3 Zrotation Yrotation Xrotation
    JOINT LeftLeg
    {
      OFFSET 0 0 -42.358652
      CHANNELS 3 Zrotation Yrotation Xrotation
      JOINT LeftFoot
      {
        OFFSET 0 0 -39.357303
        CHANNELS 3 Zrotation Yrotation Xrotation
      }
    }
  }
  JOINT RightThigh
  {
    OFFSET -8.409438 0 -5.917753
    CHANNELS 3 Zrotation Yrotation Xrotation
    JOINT RightLeg
    {
      OFFSET 0 0 -42.358652
      CHANNELS 3 Zrotation Yrotation Xrotation
      JOINT RightFoot
      {
        OFFSET 0 0 -39.357303
        CHANNELS 3 Zrotation Yrotation Xrotation
      }
    }
  }
  JOINT SpineLow
  {
    OFFSET 0 0 4.719101
    CHANNELS 3 Zrotation Yrotation Xrotation
    JOINT SpineMid
    {
      OFFSET 0 0 12.899191
      CHANNELS 3 Zrotation Yrotation Xrotation
      JOINT Chest
      {
        OFFSET 0 0 12.899191
        CHANNELS 3 Zrotation Yrotation Xrotation
        JOINT LeftShoulder
        {
          OFFSET 7.550562 1.41573 9.438202
          CHANNELS 3 Zrotation Yrotation Xrotation
          JOINT LeftArm
          {
            OFFSET 9.155056 0 4.247191
            CHANNELS 3 Zrotation Yrotation Xrotation
            JOINT LeftForearm
            {
              OFFSET 0 0 25.771955
              CHANNELS 3 Zrotation Yrotation Xrotation
              JOINT LeftHand
              {
                OFFSET 0 0 25.197169
                CHANNELS 3 Zrotation Yrotation Xrotation
              }
            }
          }
        }
        JOINT RightShoulder
        {
          OFFSET -7.550562 1.41573 9.438202
          CHANNELS 3 Zrotation Yrotation Xrotation
          JOINT RightArm
          {
            OFFSET -9.155056 0 4.247191
            CHANNELS 3 Zrotation Yrotation Xrotation
            JOINT RightForearm
            {
              OFFSET 0 0 -25.771955
              CHANNELS 3 Zrotation Yrotation Xrotation
              JOINT RightHand
              {
                OFFSET 0 0 -25.197169
                CHANNELS 3 Zrotation Yrotation Xrotation
              }
            }
          }
        }
        JOINT Neck
        {
          OFFSET 0 0 15.101124
          CHANNELS 3 Zrotation Yrotation Xrotation
          JOINT Head
          {
            OFFSET 0 0 11.325843
            CHANNELS 3 Zrotation Yrotation Xrotation
            End Site
            {
              OFFSET 0 0 14.157303
            }
          }
        }
      }
    }
  }
}
MOTION
Frames: 5
Frame Time: 0.0
0.0  93.25843  0.0  0.933031  34.310333  -93.173488  8.414957  -17.012466  19.614188  -10.117507  2.921491  15.114099  3.863714  0.769969  0.72878  -21.981115  -11.748835  -32.254538  9.254174  22.269454  51.844814  6.395098  5.847458  1.752594  1.071887  -0.31039  1.856281  2.904272  -0.929886  5.059361  2.904272  -0.929886  5.059361  -21.898151  25.953592  6.01737  132.419204  40.220706  -167.225542  -11.774575  10.291012  78.585136  63.209738  -32.887826  -7.323666  4.875534  -12.531148  18.751784  9.647218  72.147065  -38.072437  -38.610745  -34.436542  -81.392095  51.754472  7.43783  -15.342136  -20.948993  -2.774754  3.258141  -15.694429  -2.195929  2.351168  
0.0  93.25843  0.0  1.262902  34.399125  -92.671819  8.565822  -17.825563  18.257006  -11.006757  4.393749  16.321067  4.143278  1.116058  0.321307  -22.794354  -11.846839  -32.944134  9.548634  22.454419  51.871896  6.588168  5.821638  1.776123  1.17617  -0.242356  1.790945  3.195102  -0.74891  4.882444  3.195102  -0.74891  4.882444  -21.494211  25.783208  6.96805  134.060861  40.339551  -165.938265  -12.274806  11.47988  77.916087  63.03421  -32.887437  -7.293412  4.238282  -12.325036  18.751837  10.798063  70.842265  -37.122086  -37.958839  -34.610293  -81.807027  51.708983  7.506256  -15.407201  -21.356209  -2.493897  3.350795  -16.001546  -1.990526  2.428968  
0.0  93.25843  0.0  1.34653  34.583134  -92.538568  9.599398  -18.315072  17.262237  -12.310142  4.957201  16.858662  4.323161  1.150072  0.142407  -24.234592  -12.076915  -33.281941  10.328727  22.293311  51.968606  6.712911  5.739984  1.805049  1.254825  -0.187046  1.770329  3.414224  -0.6026  4.827939  3.414224  -0.6026  4.827939  -21.425837  25.330693  7.499667  135.508  40.225551  -165.080376  -12.612387  12.306819  77.500156  62.836307  -32.968144  -7.069365  3.805961  -12.385922  18.443471  12.90704  69.928519  -35.133471  -37.710004  -34.500694  -82.199091  51.807751  7.512532  -15.41588  -21.703073  -2.314924  3.4114  -16.262795  -1.860257  2.479613  
0.0  93.25843  0.0  1.455418  34.844723  -92.220404  11.26924  -18.38421  16.570682  -13.872296  4.856293  16.5127  4.638505  1.077817  0.192074  -25.884574  -12.324777  -33.858263  11.29273  21.936927  52.204005  6.912018  5.609608  1.846777  1.313147  -0.136899  1.727158  3.577532  -0.467578  4.712052  3.577532  -0.467578  4.712053  -21.683834  24.986556  7.704768  136.206047  40.119654  -164.901454  -12.883548  12.574627  77.402174  62.862188  -32.94413  -6.894074  3.494134  -12.588122  18.041609  15.14499  69.528805  -33.015119  -37.890502  -34.061984  -82.290113  51.917265  7.447578  -15.393112  -22.018408  -2.190241  3.4727  -16.500008  -1.770664  2.529108  
0.0  93.25843  0.0  1.722913  35.009135  -91.80293  12.004499  -17.558764  16.340445  -14.280166  4.040166  16.242419  4.715991  1.225279  0.064287  -27.378197  -12.376898  -34.595831  12.112063  21.503866  52.527006  7.151974  5.471653  1.873905  1.323942  -0.088928  1.681245  3.610699  -0.33484  4.589101  3.6107  -0.33484  4.589101  -21.78971  24.889265  7.705593  135.959946  40.145951  -165.315817  -13.141764  11.996893  77.582568  62.946898  -32.689501  -6.894709  3.53658  -12.874907  17.74231  17.058639  69.686974  -31.145289  -38.229131  -33.654703  -82.220586  52.030269  7.314139  -15.315205  -22.117189  -2.063695  3.561023  -16.57477  -1.679401  2.599758  
